<?xml version="1.0" encoding="utf-8"?>
<!-- Generator: Adobe Illustrator 21.1.0, SVG Export Plug-In . SVG Version: 6.00 Build 0)  -->
<svg version="1.1" id="Layer_1" xmlns="http://www.w3.org/2000/svg" xmlns:xlink="http://www.w3.org/1999/xlink" x="0px" y="0px"
	 viewBox="0 0 506 241" style="enable-background:new 0 0 506 241;" xml:space="preserve">
<style type="text/css">
	.st0{fill:#FFFFFF;}
</style>
<title>NEETA MADAHAR</title>
<desc>Created with Sketch.</desc>
<g id="Page-1">
	<g id="yoga---desktop-copy" transform="translate(-102.000000, -202.000000)">
		<g id="logo" transform="translate(102.000000, 202.000000)">
			<g>
				<polygon class="st0" points="113.5,123.5 113.5,108.2 88.7,108.2 88.7,67.4 108,67.4 108,51.7 88.7,51.7 88.7,16.4 113.2,16.4 
					113.2,0.6 70,0.6 70,117.4 67.9,117.4 52.8,202.6 38.2,117.4 18.7,117.4 17,240.3 31.1,240.3 32.5,154.6 47.4,240.3 58.7,240.3 
					73.3,154.9 74.8,240.3 88.8,240.3 87,123.5 				"/>
				<polygon class="st0" points="54.3,123.5 54.3,0.6 38.8,0.6 38.8,70.7 13.8,0.6 0.7,0.6 0.7,123.5 16.7,123.5 16.7,50.1 
					41.9,123.5 				"/>
				<path class="st0" d="M143.1,67.4h19.3V51.7h-19.3V16.4h24.5V0.6h-43.2v116.8h-5L98.8,240.3h17.7l4.2-28.4h17.9l4.1,28.4h17.4
					l-19.6-116.8h27.3v-15.3h-24.8V67.4z M122.6,197.7l7-51.6l7,51.6H122.6z"/>
				<path class="st0" d="M214.3,121.4c-1.9-1.1-4.2-2-6.7-2.6V17.1h16.9V0.6h-52.8v16.5h17.2v100.3h-18.4v122.9h25
					c8,0,14.3-1.4,18.9-4.3s8-7.2,10-13c2-5.8,3-13.3,3-22.6v-44.8c0-9.1-1-16.4-3-21.9C222.4,128.2,219,124.1,214.3,121.4z
					 M208.3,201.2c0,6.1-0.3,10.6-0.8,13.7c-0.5,3.1-1.7,5.5-3.6,7.2s-4.9,2.6-9,2.6h-5.8v-91.3h5.6c4.1,0,7.1,0.7,9,2
					c1.9,1.4,3.2,3.5,3.7,6.3c0.6,2.8,0.9,7,0.9,12.4V201.2z"/>
				<path class="st0" d="M396,117.4l-20.6,122.9h17.7l4.2-28.4h17.9l4.1,28.4h17.4l-20.6-122.9H396z M399.2,197.7l7-51.6l7,51.6
					H399.2z"/>
				<path class="st0" d="M491.4,179.8c4.7-2.2,7.9-5.8,9.9-10.7c1.9-4.9,2.9-11.3,2.9-19c0-11.9-2.7-20.4-8-25.3s-13.4-7.4-24.3-7.4
					H447v122.9h18.7V184h8.9l12.3,56.3h18.8L491.4,179.8z M483,165.7c-2.2,2.9-6,4.4-11.4,4.4h-6v-37.3h7c5.2,0,8.7,1.5,10.7,4.4
					c2,2.9,3,7.6,3,14.1C486.4,157.9,485.3,162.7,483,165.7z"/>
				<polygon class="st0" points="346.1,168.7 325.1,168.7 325.1,117.4 306.4,117.4 306.4,240.3 325.1,240.3 325.1,184.8 
					346.1,184.8 346.1,240.3 364.9,240.3 364.9,117.4 346.1,117.4 				"/>
				<path class="st0" d="M288.2,123.5L267.6,0.6h-20.1L227,123.5h17.7l4.2-28.4h17.9l3.2,22.3h-14.8l-20.6,122.9h17.7l4.2-28.4h17.9
					l4.1,28.4h17.4l-19.6-116.8H288.2z M250.7,80.9l7-51.6l7,51.6H250.7z M258.4,197.7l7-51.6l7,51.6H258.4z"/>
			</g>
		</g>
	</g>
</g>
</svg>
